<?xml version="1.0" standalone="no"?>
<!DOCTYPE svg PUBLIC "-//W3C//DTD SVG 20010904//EN"
 "http://www.w3.org/TR/2001/REC-SVG-20010904/DTD/svg10.dtd">
<svg version="1.0" xmlns="http://www.w3.org/2000/svg"
 width="213.000000pt" height="76.000000pt" viewBox="0 0 213.000000 76.000000"
 preserveAspectRatio="xMidYMid meet">
<metadata>
Created by potrace 1.16, written by Peter Selinger 2001-2019
</metadata>
<g transform="translate(0.000000,76.000000) scale(0.100000,-0.100000)"
fill="#000000" stroke="none">
<path d="M900 465 c0 -217 1 -225 20 -225 19 0 20 8 22 181 l3 181 59 -106
c33 -58 63 -106 67 -106 4 0 35 48 70 107 l64 108 3 -183 c2 -174 3 -182 22
-182 19 0 20 8 20 225 l0 225 -23 0 c-18 0 -34 -21 -87 -115 -51 -91 -67 -113
-75 -102 -6 8 -35 60 -65 116 -45 82 -59 101 -77 101 l-23 0 0 -225z"/>
<path d="M1322 668 c8 -13 40 -68 71 -124 l57 -100 0 -102 c0 -95 1 -102 20
-102 19 0 20 7 20 102 l0 101 59 101 c89 154 86 146 57 146 -20 0 -33 -16 -78
-95 -29 -52 -55 -95 -58 -95 -3 0 -29 43 -58 95 -45 81 -57 95 -79 95 -24 0
-24 -1 -11 -22z"/>
<path d="M1690 465 l0 -225 120 0 c113 0 120 1 120 20 0 18 -8 20 -97 22 l-98
3 -3 203 c-2 194 -3 202 -22 202 -19 0 -20 -7 -20 -225z"/>
<path d="M157 99 c-9 -6 -15 -14 -12 -20 8 -12 1782 -12 1790 0 3 6 -3 15 -14
20 -27 15 -1739 15 -1764 0z"/>
</g>
</svg>
